<svg width="393" height="198" viewBox="0 0 393 198" fill="none" xmlns="http://www.w3.org/2000/svg">
<path d="M109.801 90.1077L181.364 130.156C183.492 131.33 183.492 134.461 181.364 135.635L78.1434 194.338C77.2123 194.86 75.8821 194.86 74.951 194.338L3.25537 153.898C1.12711 152.724 1.12711 149.593 3.25537 148.419L106.609 90.1077C107.54 89.5859 108.737 89.5859 109.801 90.1077Z" fill="white"/>
<path d="M105.674 0.890075L105.674 0.889908C107.234 -0.130521 109.186 -0.131258 110.749 0.762795L110.755 0.766443L110.762 0.769191L111.255 0.968101L5.79791 63.4543L5.74515 63.4856V63.5469V143.736L3.37573 142.636C3.3749 142.635 3.37408 142.635 3.37325 142.634C1.68072 141.739 0.639755 139.95 0.639755 138.165V138.164L0.107697 64.0687C0.107697 64.0684 0.107697 64.0682 0.107697 64.0679C0.107994 62.2808 1.15103 60.4904 2.71371 59.5964L105.674 0.890075ZM105.674 0.890075L105.668 0.893322L2.71384 59.5963L105.674 0.890075Z" fill="#FBFDFE" stroke="black" stroke-width="0.215245"/>
<path d="M0.697136 138.166V138.166C0.697136 139.952 1.73816 141.741 3.43075 142.636L5.80253 143.738V63.618L4.84595 63.1915L4.17153 62.9195C3.70621 62.9122 3.17101 62.6691 2.73876 62.4148C2.73866 62.4148 2.73855 62.4147 2.73845 62.4146L0.908437 61.3541C0.503951 62.0047 0.165148 62.7489 0.165084 64.0696C0.165084 64.0697 0.165084 64.0699 0.165084 64.07L0.697136 138.166Z" fill="#0093AD" stroke="black" stroke-width="0.215245"/>
<path d="M112.367 86.6901L112.367 86.69L183.93 126.739L183.93 126.739C185.985 127.872 185.985 130.896 183.93 132.029L183.929 132.03L80.7094 190.733L112.367 86.6901ZM112.367 86.6901L112.364 86.6879M112.367 86.6901L112.364 86.6879M112.364 86.6879C111.331 86.0552 110.181 86.0595 109.289 86.6843L109.289 86.6847L109.28 86.6899L5.9269 145.002L5.92599 145.002C3.87192 146.135 3.87192 149.16 5.92599 150.293L5.92688 150.293M112.364 86.6879L5.92688 150.293M5.92688 150.293L77.6222 190.733M5.92688 150.293L77.6222 190.733M77.6222 190.733L77.6225 190.733C78.5207 191.236 79.8105 191.236 80.7088 190.733L77.6222 190.733Z" fill="#219BA8" stroke="black" stroke-width="0.215245"/>
<path d="M117.953 85.9451L117.953 85.945C113.463 83.3552 107.918 83.3552 103.429 85.945L103.375 85.8518L103.428 85.945L4.38544 143.052V147.149L185.471 130.498V124.789L117.953 85.9451Z" fill="#3666F5" stroke="black" stroke-width="0.215245"/>
<path d="M112.367 86.7037L112.367 86.7038L112.364 86.7016C111.339 86.0737 110.199 86.0732 109.31 86.6838L77.9571 143.871L77.942 143.899L77.9147 143.914C75.8606 145.047 75.8606 148.071 77.9147 149.204L77.9682 149.234L77.9703 149.295L79.3635 191.056C79.3708 191.056 79.3782 191.056 79.3856 191.056C79.49 191.061 79.6027 191.066 79.761 191.046C79.9787 191.018 80.2771 190.942 80.7131 190.744L183.929 132.044L183.93 132.043C185.985 130.91 185.985 127.886 183.93 126.753L183.93 126.752L112.367 86.7037Z" fill="#219BA8" stroke="black" stroke-width="0.215245"/>
<path d="M112.977 3.63427H112.977V3.63333C112.977 1.36604 110.673 0.118973 108.886 1.2458L108.886 1.24589L108.882 1.24836L3.13382 61.256L3.13332 61.2563C2.23614 61.7591 1.72539 62.6361 1.72514 63.6402C1.72514 63.6405 1.72514 63.6407 1.72514 63.641L2.25722 140.215V140.216C2.25722 142.351 4.56197 143.733 6.48452 142.602L6.48598 142.601L112.234 82.5933L112.234 82.593C113.131 82.0901 113.642 81.2129 113.642 80.2087C113.642 80.2086 113.642 80.2084 113.642 80.2083L112.977 3.63427Z" fill="#1F2855" stroke="black" stroke-width="0.215245"/>
<path d="M108.987 12.5044H108.987V12.5037C108.987 10.8926 107.218 9.90005 105.826 10.7686L105.826 10.7687L105.823 10.7708L6.59384 67.5164C6.59375 67.5165 6.59367 67.5165 6.59357 67.5166C5.96571 67.8862 5.583 68.6306 5.58277 69.3797C5.58277 69.38 5.58277 69.3802 5.58277 69.3804L5.98181 131.083V131.084C5.98181 132.825 7.88326 133.818 9.27563 132.949L9.27559 132.949L9.27903 132.947L108.375 76.0711C108.375 76.0711 108.375 76.0711 108.375 76.0711C109.003 75.7014 109.386 74.9568 109.386 74.2075C109.386 74.2074 109.386 74.2072 109.386 74.2071L108.987 12.5044Z" fill="#D0EBF0" stroke="black" stroke-width="0.215245"/>
<path d="M183.93 122.699L183.93 122.699L112.37 82.6517C111.334 82.1448 110.176 82.1483 109.28 82.6503L5.92688 140.962L5.92598 140.962C3.87192 142.095 3.87192 145.12 5.92598 146.253L5.92688 146.253L77.6223 186.693C78.5207 187.197 79.811 187.197 80.7094 186.693L183.929 127.99L183.93 127.99C185.985 126.857 185.985 123.832 183.93 122.699Z" fill="#FBFDFE" stroke="#219BA8" stroke-width="0.215245"/>
<path d="M125.057 132.78L144.344 143.607C145.408 144.26 145.408 145.825 144.344 146.477L115.879 162.653C115.347 162.914 114.681 162.914 114.149 162.653L94.8621 151.826C93.7979 151.174 93.7979 149.608 94.8621 148.956L123.327 132.91C123.993 132.519 124.525 132.519 125.057 132.78Z" fill="#1F2855"/>
<path d="M22.7697 131.486L24.8144 132.665L101.206 89.353L99.1721 88.2972L22.7697 131.486Z" fill="white" stroke="black" stroke-width="0.215245"/>
<path d="M104.573 97.6882L109.894 94.6878C110.426 94.2965 110.426 93.7746 109.761 93.3833L106.435 91.5569C105.77 91.1656 104.706 91.1656 104.174 91.4265L98.8532 94.4269C98.3211 94.8183 98.3211 95.3401 98.9862 95.7314L102.312 97.5578C102.977 97.9492 104.041 97.9492 104.573 97.6882Z" fill="white"/>
<path d="M95.1286 103.037L100.449 100.036C100.981 99.645 100.981 99.1232 100.316 98.7318L96.9908 96.9055C96.3257 96.5142 95.2616 96.5142 94.7295 96.7751L89.4089 99.7754C88.8768 100.167 88.8768 100.689 89.5419 101.08L92.8673 102.906C93.5324 103.298 94.5965 103.298 95.1286 103.037Z" fill="white"/>
<path d="M85.2853 108.516L90.6059 105.515C91.138 105.124 91.138 104.602 90.4729 104.211L87.1475 102.385C86.4824 101.993 85.4183 101.993 84.8863 102.254L79.5656 105.254C79.0336 105.646 79.0336 106.168 79.6986 106.559L83.024 108.385C83.6891 108.907 84.7532 108.907 85.2853 108.516Z" fill="white"/>
<path d="M75.841 113.865L81.1616 110.864C81.6937 110.473 81.6937 109.951 81.0286 109.56L77.7032 107.733C77.0381 107.342 75.974 107.342 75.4419 107.603L70.1213 110.603C69.5892 110.995 69.5892 111.516 70.2543 111.908L73.5797 113.865C74.2448 114.256 75.3089 114.256 75.841 113.865Z" fill="white"/>
<path d="M66.3971 119.213L71.7178 116.212C72.2498 115.821 72.2498 115.299 71.5847 114.908L68.2593 113.081C67.5943 112.69 66.5301 112.69 65.9981 112.951L60.6774 115.951C60.1454 116.343 60.1454 116.864 60.8104 117.256L64.1358 119.082C64.8009 119.604 65.865 119.604 66.3971 119.213Z" fill="white"/>
<path d="M57.0861 124.561L62.4067 121.561C62.9388 121.169 62.9388 120.648 62.2737 120.256L58.9483 118.43C58.2832 118.039 57.2191 118.039 56.687 118.3L51.3664 121.3C50.8343 121.691 50.8343 122.213 51.4994 122.604L54.8248 124.431C55.3569 124.953 56.421 124.953 57.0861 124.561Z" fill="white"/>
<path d="M47.6417 129.91L52.9624 126.909C53.4944 126.518 53.4944 125.996 52.8294 125.605L49.504 123.779C48.8389 123.387 47.7748 123.387 47.2427 123.648L41.922 126.649C41.39 127.04 41.39 127.562 42.0551 127.953L45.3805 129.779C45.9125 130.301 46.9767 130.301 47.6417 129.91Z" fill="white"/>
<path d="M38.1979 135.258L43.5185 132.258C44.0506 131.867 44.0506 131.345 43.3855 130.954L40.0601 129.127C39.395 128.736 38.3309 128.736 37.7989 128.997L32.4782 131.997C31.9461 132.389 31.9461 132.91 32.6112 133.302L35.9366 135.128C36.4687 135.65 37.5328 135.65 38.1979 135.258Z" fill="white"/>
<path d="M28.7536 140.607L34.0742 137.606C34.6063 137.215 34.6063 136.693 33.9412 136.302L30.6158 134.475C29.9507 134.084 28.8866 134.084 28.3545 134.345L23.0339 137.345C22.5018 137.737 22.5018 138.258 23.1669 138.65L26.4923 140.476C27.0244 140.998 28.0885 140.998 28.7536 140.607Z" fill="white"/>
<path d="M113.618 101.732L118.141 99.1229C118.673 98.8619 118.673 98.2097 118.008 97.9488L114.549 95.992C113.884 95.6006 112.953 95.6006 112.421 95.8615L107.898 98.4706C107.366 98.7315 107.366 99.3838 108.031 99.6447L111.49 101.601C112.022 101.993 112.953 101.993 113.618 101.732Z" fill="white"/>
<path d="M105.371 106.429L109.894 103.82C110.426 103.559 110.426 102.906 109.761 102.646L106.302 100.689C105.637 100.297 104.706 100.297 104.174 100.558L99.6513 103.167C99.1192 103.428 99.1192 104.08 99.7843 104.341L103.11 106.298C103.775 106.689 104.839 106.69 105.371 106.429Z" fill="white"/>
<path d="M96.7245 111.255L101.247 108.646C101.779 108.385 101.779 107.733 101.114 107.472L97.6556 105.515C96.9905 105.124 96.0594 105.124 95.5274 105.385L91.0048 107.994C90.4728 108.255 90.4727 108.907 91.1378 109.168L94.5962 111.125C95.2613 111.516 96.1924 111.647 96.7245 111.255Z" fill="white"/>
<path d="M88.4779 115.951L93.0005 113.342C93.5325 113.081 93.5325 112.429 92.8675 112.168L89.409 110.211C88.7439 109.82 87.8128 109.82 87.2808 110.081L82.7582 112.69C82.2262 112.951 82.2262 113.603 82.8913 113.864L86.3497 115.821C87.0147 116.212 87.9459 116.212 88.4779 115.951Z" fill="white"/>
<path d="M80.2309 120.648L84.7534 118.039C85.2855 117.778 85.2855 117.126 84.6204 116.865L81.162 114.908C80.4969 114.517 79.5658 114.517 79.0337 114.778L74.5112 117.387C73.9791 117.647 73.9791 118.3 74.6442 118.561L78.1026 120.517C78.7677 120.909 79.6988 120.909 80.2309 120.648Z" fill="white"/>
<path d="M71.9838 125.213L76.5063 122.604C77.0384 122.343 77.0384 121.691 76.3733 121.43L72.9149 119.473C72.2498 119.082 71.3187 119.082 70.7866 119.343L66.2641 121.952C65.732 122.213 65.732 122.865 66.3971 123.126L69.8555 125.213C70.5206 125.474 71.4517 125.605 71.9838 125.213Z" fill="white"/>
<path d="M63.7367 129.91L68.2593 127.301C68.7913 127.04 68.7913 126.387 68.1262 126.127L64.6678 124.17C64.0027 123.778 63.0716 123.778 62.5396 124.039L58.017 126.648C57.485 126.909 57.485 127.561 58.15 127.822L61.6085 129.779C62.2735 130.171 63.2047 130.171 63.7367 129.91Z" fill="white"/>
<path d="M55.6229 134.606L60.1455 131.997C60.6776 131.736 60.6776 131.084 60.0125 130.823L56.5541 128.866C55.889 128.475 54.9579 128.475 54.4258 128.736L49.9033 131.345C49.3712 131.605 49.3712 132.258 50.0363 132.519L53.4947 134.475C54.0267 134.867 54.9579 134.867 55.6229 134.606Z" fill="white"/>
<path d="M47.3754 139.172L51.8979 136.563C52.43 136.302 52.43 135.65 51.7649 135.389L48.3065 133.432C47.6414 133.041 46.7103 133.041 46.1782 133.301L41.6557 135.911C41.1236 136.171 41.1236 136.824 41.7887 137.085L45.2471 139.041C45.7792 139.563 46.8433 139.563 47.3754 139.172Z" fill="white"/>
<path d="M143.413 118.039L147.537 115.69C148.069 115.43 147.936 114.908 147.404 114.647L144.344 112.821C143.812 112.56 142.881 112.429 142.349 112.69L138.226 115.038C137.694 115.299 137.827 115.821 138.359 116.082L141.418 117.908C141.95 118.3 142.881 118.3 143.413 118.039Z" fill="white"/>
<path d="M135.964 122.213L140.088 119.865C140.62 119.604 140.487 119.082 139.955 118.821L136.895 116.995C136.363 116.734 135.432 116.603 134.9 116.864L130.776 119.213C130.244 119.473 130.377 119.995 130.909 120.256L133.969 122.083C134.634 122.474 135.432 122.474 135.964 122.213Z" fill="white"/>
<path d="M128.25 126.649L132.373 124.3C132.905 124.039 132.772 123.518 132.24 123.257L129.181 121.43C128.649 121.169 127.718 121.039 127.186 121.3L123.062 123.648C122.53 123.909 122.663 124.431 123.195 124.692L126.254 126.518C126.92 126.779 127.718 126.91 128.25 126.649Z" fill="white"/>
<path d="M119.47 131.606L124.791 128.605C125.323 128.345 125.323 127.692 124.658 127.431L121.732 125.866C121.067 125.475 120.135 125.475 119.603 125.736L114.283 128.736C113.751 128.997 113.751 129.649 114.416 129.91L117.342 131.475C117.874 131.867 118.805 131.867 119.47 131.606Z" fill="white"/>
<path d="M91.2707 147.52L115.081 134.084C115.613 133.693 115.613 133.171 114.948 132.78L112.154 131.214C111.489 130.823 110.425 130.823 109.893 131.084L86.0831 144.52C85.551 144.911 85.551 145.433 86.2161 145.825L89.0094 147.39C89.6745 147.781 90.7386 147.781 91.2707 147.52Z" fill="white"/>
<path d="M82.6252 152.347L86.7487 149.999C87.2808 149.738 87.1477 149.216 86.6157 148.955L83.5563 147.129C83.0242 146.868 82.0931 146.738 81.5611 146.999L77.4376 149.347C76.9055 149.608 77.0385 150.129 77.5706 150.39L80.63 152.217C81.295 152.608 82.0931 152.738 82.6252 152.347Z" fill="white"/>
<path d="M68.6589 157.696L72.1173 155.739C72.3834 155.609 72.3834 155.348 71.9843 155.217L71.1862 154.695C70.9202 154.565 70.3881 154.565 70.1221 154.695L66.6637 156.652C66.3976 156.783 66.3976 157.044 66.7967 157.174L67.5948 157.696C67.8608 157.826 68.3929 157.957 68.6589 157.696Z" fill="white"/>
<path d="M70.7863 159.001L74.2448 157.044C74.5108 156.913 74.5108 156.652 74.1117 156.522L73.3137 156C73.0476 155.87 72.5156 155.87 72.2495 156L68.7911 157.957C68.5251 158.087 68.5251 158.348 68.9241 158.479L69.7222 159.001C70.1213 159.131 70.5203 159.131 70.7863 159.001Z" fill="white"/>
<path d="M65.9983 161.87L69.4567 159.913C69.7227 159.783 69.7227 159.522 69.3237 159.392L68.5256 158.87C68.2595 158.739 67.7275 158.739 67.4614 158.87L64.003 160.827C63.737 160.957 63.737 161.218 64.136 161.348L64.9341 161.87C65.3332 162.001 65.7322 162.001 65.9983 161.87Z" fill="white"/>
<path d="M75.7087 156.261L79.1671 154.304C79.4332 154.174 79.4332 153.913 79.0341 153.782L78.236 153.26C77.97 153.13 77.4379 153.13 77.1719 153.26L73.7135 155.217C73.4474 155.348 73.4474 155.609 73.8465 155.739L74.6446 156.261C75.0436 156.391 75.4427 156.391 75.7087 156.261Z" fill="white"/>
<path d="M118.938 107.864L126.254 103.689C126.919 103.298 126.786 102.645 126.121 102.124L123.195 100.428C122.397 100.036 121.2 99.906 120.534 100.297L113.219 104.472C112.553 104.863 112.687 105.515 113.352 106.037L116.278 107.733C117.076 108.124 118.273 108.255 118.938 107.864Z" fill="white"/>
<path d="M102.311 117.256L106.833 114.647C107.366 114.386 107.366 113.734 106.7 113.473L103.242 111.516C102.577 111.125 101.646 111.125 101.114 111.386L96.5912 113.995C96.0592 114.256 96.0592 114.908 96.7243 115.169L100.183 117.126C100.848 117.517 101.779 117.517 102.311 117.256Z" fill="white"/>
<path d="M110.691 112.43L115.214 109.821C115.746 109.56 115.746 108.907 115.081 108.647L111.622 106.69C110.957 106.298 110.026 106.298 109.494 106.559L104.972 109.168C104.44 109.429 104.44 110.081 105.105 110.342L108.563 112.299C109.228 112.691 110.159 112.821 110.691 112.43Z" fill="white"/>
<path d="M94.1972 121.822L98.7197 119.213C99.2518 118.952 99.2518 118.3 98.5867 118.039L95.1283 116.082C94.4632 115.69 93.5321 115.69 93 115.951L88.4775 118.56C87.9454 118.821 87.9454 119.474 88.6105 119.734L92.0689 121.691C92.601 122.083 93.5321 122.213 94.1972 121.822Z" fill="white"/>
<path d="M85.9501 126.518L90.4726 123.909C91.0047 123.648 91.0047 122.996 90.3396 122.735L86.8812 120.778C86.2161 120.387 85.285 120.387 84.7529 120.648L80.2304 123.257C79.6983 123.518 79.6983 124.17 80.3634 124.431L83.8218 126.387C84.3539 126.779 85.418 126.779 85.9501 126.518Z" fill="white"/>
<path d="M77.703 131.214L82.2256 128.605C82.7576 128.344 82.7576 127.692 82.0925 127.431L78.6341 125.474C77.9691 125.083 77.0379 125.083 76.5059 125.344L71.9833 127.953C71.4513 128.214 71.4513 128.866 72.1163 129.127L75.5748 131.084C76.1068 131.475 77.171 131.475 77.703 131.214Z" fill="white"/>
<path d="M69.4564 135.91L73.979 133.301C74.511 133.041 74.511 132.388 73.846 132.127L70.3876 130.171C69.7225 129.779 68.7914 129.779 68.2593 130.04L63.7368 132.649C63.2047 132.91 63.2047 133.562 63.8698 133.823L67.3282 135.78C67.8602 136.171 68.9244 136.171 69.4564 135.91Z" fill="white"/>
<path d="M61.2094 140.477L65.7319 137.867C66.264 137.607 66.264 136.954 65.5989 136.693L62.1405 134.737C61.4754 134.345 60.5443 134.345 60.0122 134.606L55.4897 137.215C54.9576 137.476 54.9576 138.128 55.6227 138.389L59.0811 140.346C59.7462 140.737 60.6773 140.868 61.2094 140.477Z" fill="white"/>
<path d="M52.9628 145.172L57.4853 142.563C58.0174 142.302 58.0174 141.65 57.3523 141.389L53.8939 139.432C53.2288 139.041 52.2977 139.041 51.7657 139.302L47.2431 141.911C46.711 142.172 46.711 142.824 47.3761 143.085L50.8345 145.042C51.4996 145.433 52.4307 145.433 52.9628 145.172Z" fill="white"/>
<path d="M44.7157 149.869L49.2383 147.26C49.7703 146.999 49.7703 146.347 49.1052 146.086L45.6468 144.129C44.9818 143.738 44.0506 143.738 43.5186 143.999L38.996 146.608C38.464 146.869 38.464 147.521 39.1291 147.782L42.5875 149.739C43.2525 150.13 44.1837 150.13 44.7157 149.869Z" fill="white"/>
<path d="M118.672 115.821L133.703 107.342C134.102 107.081 134.102 106.689 133.57 106.429L129.446 104.08C128.914 103.82 128.249 103.82 127.85 104.08L112.952 112.56C112.553 112.821 112.553 113.212 113.085 113.473L117.209 115.821C117.608 116.082 118.273 116.082 118.672 115.821Z" fill="white"/>
<path d="M109.361 121.17L113.883 118.561C114.415 118.3 114.415 117.648 113.75 117.387L110.292 115.43C109.627 115.039 108.696 115.039 108.164 115.3L103.641 117.909C103.109 118.169 103.109 118.822 103.774 119.083L107.099 121.039C107.765 121.431 108.829 121.431 109.361 121.17Z" fill="white"/>
<path d="M101.114 125.866L105.637 123.257C106.169 122.996 106.169 122.343 105.504 122.082L102.045 120.126C101.38 119.734 100.449 119.734 99.917 119.995L95.3945 122.604C94.8624 122.865 94.8624 123.517 95.5275 123.778L98.9859 125.735C99.518 126.126 100.582 126.126 101.114 125.866Z" fill="white"/>
<path d="M92.8671 130.431L97.3896 127.822C97.9217 127.561 97.9217 126.909 97.2566 126.648L93.7982 124.691C93.1331 124.3 92.202 124.3 91.6699 124.561L87.1474 127.17C86.6153 127.431 86.6153 128.083 87.2804 128.344L90.7388 130.301C91.2709 130.692 92.335 130.822 92.8671 130.431Z" fill="white"/>
<path d="M84.62 135.127L89.1426 132.518C89.6746 132.257 89.6746 131.605 89.0095 131.344L85.5511 129.387C84.886 128.996 83.9549 128.996 83.4229 129.257L78.9003 131.866C78.3683 132.127 78.3683 132.779 79.0333 133.04L82.4918 134.997C83.1568 135.388 84.0879 135.388 84.62 135.127Z" fill="white"/>
<path d="M76.3729 139.824L80.8955 137.215C81.4276 136.954 81.4275 136.302 80.7625 136.041L77.3041 134.084C76.639 133.693 75.7079 133.693 75.1758 133.954L70.6533 136.563C70.1212 136.824 70.1212 137.476 70.7863 137.737L74.2447 139.694C74.9098 140.085 75.8409 140.085 76.3729 139.824Z" fill="white"/>
<path d="M68.1264 144.39L72.6489 141.781C73.181 141.52 73.181 140.868 72.5159 140.607L69.0575 138.65C68.3924 138.259 67.4613 138.259 66.9292 138.52L62.4067 141.129C61.8746 141.39 61.8746 142.042 62.5397 142.303L65.9981 144.26C66.6632 144.781 67.5943 144.781 68.1264 144.39Z" fill="white"/>
<path d="M52.1641 153.521L63.2045 147.259C64.0026 146.738 63.8696 145.955 62.9384 145.433L60.5441 144.129C59.613 143.607 58.1499 143.607 57.3518 143.998L46.3114 150.26C45.5133 150.782 45.6464 151.564 46.5775 152.086L48.9718 153.391C49.9029 153.913 51.366 153.913 52.1641 153.521Z" fill="white"/>
<path d="M120.667 122.604L140.353 111.386C140.886 110.994 140.886 110.472 140.22 110.081L136.895 108.255C136.23 107.863 135.166 107.863 134.634 108.124L114.947 119.213C114.415 119.604 114.415 120.126 115.08 120.517L118.406 122.343C119.071 122.865 120.135 122.865 120.667 122.604Z" fill="white"/>
<path d="M108.031 129.779L112.554 127.17C113.086 126.909 113.086 126.257 112.421 125.996L108.962 124.039C108.297 123.648 107.366 123.648 106.834 123.909L102.311 126.518C101.779 126.779 101.779 127.431 102.444 127.692L105.903 129.649C106.568 130.04 107.499 130.04 108.031 129.779Z" fill="white"/>
<path d="M99.7841 134.345L104.307 131.736C104.839 131.475 104.839 130.823 104.174 130.562L100.715 128.605C100.05 128.214 99.119 128.214 98.5869 128.475L94.0644 131.084C93.5323 131.345 93.5323 131.997 94.1974 132.258L97.6558 134.215C98.3209 134.606 99.252 134.737 99.7841 134.345Z" fill="white"/>
<path d="M91.5375 139.041L96.06 136.432C96.5921 136.171 96.5921 135.519 95.927 135.258L92.4686 133.302C91.8035 132.91 90.8724 132.91 90.3404 133.171L85.8178 135.78C85.2857 136.041 85.2857 136.693 85.9508 136.954L89.4092 138.911C90.0743 139.302 91.0054 139.433 91.5375 139.041Z" fill="white"/>
<path d="M83.2899 143.738L87.8125 141.129C88.3445 140.868 88.3445 140.216 87.6795 139.955L84.2211 137.998C83.556 137.606 82.6249 137.606 82.0928 137.867L77.5703 140.476C77.0382 140.737 77.0382 141.39 77.7033 141.651L81.1617 143.607C81.8268 143.999 82.7579 143.999 83.2899 143.738Z" fill="white"/>
<path d="M75.0429 148.433L79.5654 145.824C80.0975 145.564 80.0975 144.911 79.4324 144.65L75.974 142.694C75.3089 142.302 74.3778 142.302 73.8457 142.563L69.3232 145.172C68.7911 145.433 68.7911 146.085 69.4562 146.346L72.9146 148.303C73.5797 148.694 74.5108 148.694 75.0429 148.433Z" fill="white"/>
<path d="M59.0811 157.435L70.1215 151.173C70.9196 150.651 70.7865 149.869 69.8554 149.347L67.4611 148.042C66.53 147.52 65.0669 147.52 64.2688 147.912L53.2284 154.173C52.4303 154.695 52.5633 155.478 53.4945 156L55.8888 157.304C56.8199 157.826 58.283 157.957 59.0811 157.435Z" fill="white"/>
<path d="M36.8674 145.173L43.2522 141.52C43.9173 141.129 43.7843 140.476 43.1192 140.085L40.0598 138.259C39.2617 137.867 38.1976 137.737 37.5325 138.128L31.1477 141.781C30.4827 142.172 30.6157 142.825 31.2808 143.216L34.3401 145.042C35.1382 145.434 36.2023 145.564 36.8674 145.173Z" fill="white"/>
<g filter="url(#filter0_i_803_18837)">
<path d="M104.572 97.1667L109.893 94.1663C110.425 93.7749 110.425 93.2531 109.76 92.8618L106.434 91.0354C105.769 90.6441 104.705 90.6441 104.173 90.905L98.8522 93.9054C98.3202 94.2967 98.3202 94.8185 98.9852 95.2099L102.311 97.0362C102.976 97.4276 103.907 97.4276 104.572 97.1667Z" fill="#1F2855"/>
<path d="M95.1276 102.515L100.448 99.5149C100.98 99.1235 100.98 98.6017 100.315 98.2104L96.9898 96.3841C96.3247 95.9927 95.2606 95.9927 94.7285 96.2536L89.4079 99.254C88.8758 99.6453 88.8758 100.167 89.5409 100.558L92.8663 102.385C93.5314 102.776 94.4625 102.776 95.1276 102.515Z" fill="#1F2855"/>
<path d="M85.2843 107.994L90.605 104.994C91.137 104.603 91.137 104.081 90.4719 103.689L87.1465 101.863C86.4815 101.472 85.4173 101.472 84.8853 101.733L79.5646 104.733C79.0326 105.124 79.0326 105.646 79.6977 106.038L83.0231 107.864C83.6881 108.386 84.7523 108.386 85.2843 107.994Z" fill="#1F2855"/>
<path d="M75.84 113.342L81.1606 110.342C81.6927 109.951 81.6927 109.429 81.0276 109.038L77.7022 107.211C77.0371 106.82 75.973 106.82 75.4409 107.081L70.1203 110.081C69.5882 110.472 69.5882 110.994 70.2533 111.386L73.5787 113.212C74.2438 113.734 75.3079 113.734 75.84 113.342Z" fill="#1F2855"/>
<path d="M66.3961 118.691L71.7168 115.691C72.2488 115.3 72.2488 114.778 71.5838 114.387L68.2584 112.56C67.5933 112.169 66.5291 112.169 65.9971 112.43L60.6764 115.43C60.1444 115.821 60.1444 116.343 60.8095 116.735L64.1349 118.561C64.7999 119.083 65.8641 119.083 66.3961 118.691Z" fill="#1F2855"/>
<path d="M56.9518 124.04L62.2724 121.04C62.8045 120.649 62.8045 120.127 62.1394 119.735L58.814 117.909C58.1489 117.518 57.0848 117.518 56.5528 117.779L51.2321 120.779C50.7001 121.17 50.7001 121.692 51.3651 122.084L54.6905 123.91C55.3556 124.432 56.4197 124.432 56.9518 124.04Z" fill="#1F2855"/>
<path d="M47.5079 129.388L52.8286 126.388C53.3607 125.997 53.3607 125.475 52.6956 125.083L49.3702 123.257C48.7051 122.866 47.641 122.866 47.1089 123.127L41.7883 126.127C41.2562 126.518 41.2562 127.04 41.9213 127.432L45.2467 129.258C45.9118 129.78 46.9759 129.78 47.5079 129.388Z" fill="#1F2855"/>
<path d="M38.0641 134.737L43.3847 131.737C43.9168 131.345 43.9168 130.823 43.2517 130.432L39.9263 128.606C39.2613 128.214 38.1971 128.214 37.6651 128.475L32.3444 131.476C31.8124 131.867 31.8124 132.389 32.4774 132.78L35.8028 134.606C36.4679 135.128 37.532 135.128 38.0641 134.737Z" fill="#1F2855"/>
<path d="M28.6198 140.085L33.9404 137.085C34.4725 136.693 34.4725 136.172 33.8074 135.78L30.482 133.954C29.8169 133.563 28.7528 133.563 28.2207 133.823L22.9001 136.824C22.368 137.215 22.368 137.737 23.0331 138.128L26.3585 139.955C27.0236 140.477 28.0877 140.477 28.6198 140.085Z" fill="#1F2855"/>
<path d="M113.484 101.21L118.007 98.6013C118.539 98.3404 118.539 97.6881 117.874 97.4272L114.415 95.4705C113.75 95.0791 112.819 95.0791 112.287 95.34L107.765 97.949C107.233 98.2099 107.233 98.8622 107.898 99.1231L111.356 101.08C112.021 101.471 112.952 101.471 113.484 101.21Z" fill="#1F2855"/>
<path d="M105.237 105.907L109.76 103.298C110.292 103.037 110.292 102.385 109.627 102.124L106.168 100.167C105.503 99.7759 104.572 99.7759 104.04 100.037L99.5175 102.646C98.9855 102.907 98.9855 103.559 99.6505 103.82L103.109 105.777C103.774 106.168 104.705 106.168 105.237 105.907Z" fill="#1F2855"/>
<path d="M96.724 110.733L101.247 108.124C101.779 107.863 101.779 107.211 101.114 106.95L97.6551 104.993C96.9901 104.602 96.0589 104.602 95.5269 104.863L91.0043 107.472C90.4723 107.733 90.4723 108.385 91.1373 108.646L94.5958 110.603C95.1278 110.994 96.1919 110.994 96.724 110.733Z" fill="#1F2855"/>
<path d="M88.4769 115.43L92.9995 112.821C93.5316 112.56 93.5316 111.908 92.8665 111.647L89.4081 109.69C88.743 109.299 87.8119 109.299 87.2798 109.56L82.7573 112.169C82.2252 112.43 82.2252 113.082 82.8903 113.343L86.3487 115.3C86.8808 115.691 87.9449 115.691 88.4769 115.43Z" fill="#1F2855"/>
<path d="M80.2299 119.996L84.7524 117.387C85.2845 117.126 85.2845 116.474 84.6194 116.213L81.161 114.256C80.4959 113.865 79.5648 113.865 79.0327 114.126L74.5102 116.735C73.9781 116.996 73.9781 117.648 74.6432 117.909L78.1016 119.866C78.6337 120.387 79.6978 120.387 80.2299 119.996Z" fill="#1F2855"/>
<path d="M71.9828 124.692L76.5053 122.083C77.0374 121.822 77.0374 121.17 76.3723 120.909L72.9139 118.952C72.2488 118.561 71.3177 118.561 70.7857 118.821L66.2631 121.43C65.7311 121.691 65.7311 122.344 66.3961 122.605L69.8546 124.692C70.5196 124.953 71.4507 125.083 71.9828 124.692Z" fill="#1F2855"/>
<path d="M63.7357 129.388L68.2583 126.779C68.7903 126.518 68.7903 125.866 68.1253 125.605L64.6668 123.648C64.0018 123.257 63.0707 123.257 62.5386 123.518L58.016 126.127C57.484 126.388 57.484 127.04 58.1491 127.301L61.6075 129.258C62.2726 129.649 63.2037 129.649 63.7357 129.388Z" fill="#1F2855"/>
<path d="M55.4887 134.085L60.0112 131.476C60.5433 131.215 60.5433 130.563 59.8782 130.302L56.4198 128.345C55.7547 127.954 54.8236 127.954 54.2915 128.215L49.769 130.824C49.2369 131.084 49.2369 131.737 49.902 131.998L53.3604 133.954C54.0255 134.346 54.9566 134.346 55.4887 134.085Z" fill="#1F2855"/>
<path d="M47.2416 138.65L51.7641 136.041C52.2962 135.78 52.2962 135.128 51.6311 134.867L48.1727 132.91C47.5076 132.519 46.5765 132.519 46.0444 132.78L41.5219 135.389C40.9898 135.65 40.9898 136.302 41.6549 136.563L45.1133 138.52C45.7784 138.911 46.7095 139.042 47.2416 138.65Z" fill="#1F2855"/>
<path d="M143.279 117.517L147.403 115.169C147.935 114.908 147.802 114.386 147.27 114.125L144.211 112.299C143.679 112.038 142.747 111.908 142.215 112.169L138.092 114.517C137.56 114.778 137.693 115.3 138.225 115.56L141.284 117.387C141.949 117.778 142.88 117.778 143.279 117.517Z" fill="#1F2855"/>
<path d="M135.964 121.691L140.087 119.343C140.619 119.082 140.486 118.561 139.954 118.3L136.895 116.473C136.363 116.212 135.432 116.082 134.899 116.343L130.776 118.691C130.244 118.952 130.377 119.474 130.909 119.735L133.968 121.561C134.5 121.952 135.432 121.952 135.964 121.691Z" fill="#1F2855"/>
<path d="M128.248 125.997L132.372 123.648C132.904 123.388 132.771 122.866 132.239 122.605L129.179 120.779C128.647 120.518 127.716 120.387 127.184 120.648L123.061 122.996C122.529 123.257 122.662 123.779 123.194 124.04L126.253 125.866C126.785 126.258 127.716 126.388 128.248 125.997Z" fill="#1F2855"/>
<path d="M119.337 131.084L124.657 128.084C125.189 127.823 125.189 127.171 124.524 126.91L121.598 125.345C120.933 124.953 120.002 124.953 119.47 125.214L114.149 128.214C113.617 128.475 113.617 129.128 114.282 129.389L117.208 130.954C117.873 131.345 118.805 131.345 119.337 131.084Z" fill="#1F2855"/>
<path d="M91.2702 146.999L115.08 133.432C115.612 133.041 115.612 132.519 114.947 132.128L112.154 130.562C111.489 130.171 110.424 130.171 109.892 130.432L86.0826 143.868C85.5505 144.26 85.5505 144.782 86.2156 145.173L89.0089 146.738C89.674 147.26 90.7381 147.26 91.2702 146.999Z" fill="#1F2855"/>
<path d="M82.6237 151.826L86.7472 149.478C87.2793 149.217 87.1463 148.695 86.6142 148.434L83.5548 146.608C83.0228 146.347 82.0917 146.216 81.5596 146.477L77.4361 148.825C76.904 149.086 77.0371 149.608 77.5691 149.869L80.6285 151.695C81.2936 152.087 82.0917 152.087 82.6237 151.826Z" fill="#1F2855"/>
<path d="M68.5246 157.174L71.983 155.218C72.2491 155.087 72.2491 154.826 71.85 154.696L71.0519 154.174C70.7859 154.044 70.2538 154.044 69.9878 154.174L66.5294 156.131C66.2634 156.261 66.2634 156.522 66.6624 156.652L67.4605 157.174C67.8595 157.305 68.2586 157.305 68.5246 157.174Z" fill="#1F2855"/>
<path d="M70.7854 158.479L74.2438 156.522C74.5098 156.391 74.5098 156.13 74.1108 156L73.3127 155.478C73.0466 155.348 72.5146 155.348 72.2486 155.478L68.7901 157.435C68.5241 157.565 68.5241 157.826 68.9232 157.957L69.7212 158.479C70.1203 158.609 70.5193 158.609 70.7854 158.479Z" fill="#1F2855"/>
<path d="M65.9973 161.218L69.4557 159.262C69.7217 159.131 69.7217 158.87 69.3227 158.74L68.5246 158.218C68.2586 158.088 67.7265 158.088 67.4605 158.218L64.002 160.175C63.736 160.305 63.736 160.566 64.1351 160.697L64.9332 161.218C65.1992 161.349 65.7313 161.479 65.9973 161.218Z" fill="#1F2855"/>
<path d="M75.7072 155.739L79.1657 153.783C79.4317 153.652 79.4317 153.391 79.0327 153.261L78.2346 152.739C77.9685 152.608 77.4365 152.608 77.1704 152.739L73.712 154.696C73.446 154.826 73.446 155.087 73.845 155.218L74.6431 155.739C75.0422 155.87 75.4412 155.87 75.7072 155.739Z" fill="#1F2855"/>
<path d="M118.938 107.342L126.254 103.168C126.919 102.776 126.786 102.124 126.121 101.602L123.194 99.9063C122.396 99.515 121.199 99.3845 120.534 99.7758L113.218 103.95C112.553 104.342 112.686 104.994 113.351 105.516L116.277 107.212C117.076 107.603 118.273 107.733 118.938 107.342Z" fill="#1F2855"/>
<path d="M102.31 116.734L106.833 114.125C107.365 113.864 107.365 113.212 106.7 112.951L103.242 110.994C102.576 110.603 101.645 110.603 101.113 110.864L96.5908 113.473C96.0587 113.734 96.0587 114.386 96.7238 114.647L100.182 116.604C100.847 116.995 101.778 116.995 102.31 116.734Z" fill="#1F2855"/>
<path d="M110.69 111.908L115.213 109.299C115.745 109.038 115.745 108.385 115.08 108.125L111.621 106.168C110.956 105.776 110.025 105.776 109.493 106.037L104.971 108.646C104.439 108.907 104.439 109.56 105.104 109.82L108.562 111.777C109.094 112.169 110.158 112.299 110.69 111.908Z" fill="#1F2855"/>
<path d="M94.0634 121.3L98.5859 118.691C99.118 118.43 99.118 117.778 98.4529 117.517L94.9945 115.56C94.3294 115.169 93.3983 115.169 92.8662 115.43L88.3437 118.039C87.8116 118.3 87.8116 118.952 88.4767 119.213L91.9351 121.17C92.6002 121.561 93.5313 121.692 94.0634 121.3Z" fill="#1F2855"/>
<path d="M85.8163 125.996L90.3388 123.387C90.8709 123.126 90.8709 122.474 90.2058 122.213L86.7474 120.256C86.0823 119.865 85.1512 119.865 84.6192 120.126L80.0966 122.735C79.5645 122.996 79.5646 123.648 80.2296 123.909L83.688 125.866C84.3531 126.257 85.2842 126.257 85.8163 125.996Z" fill="#1F2855"/>
<path d="M77.5692 130.693L82.0918 128.084C82.6238 127.823 82.6238 127.171 81.9588 126.91L78.5003 124.953C77.8353 124.562 76.9042 124.562 76.3721 124.822L71.8495 127.431C71.3175 127.692 71.3175 128.345 71.9826 128.605L75.441 130.562C76.1061 130.954 77.0372 130.954 77.5692 130.693Z" fill="#1F2855"/>
<path d="M69.4555 135.258L73.978 132.649C74.5101 132.388 74.5101 131.736 73.845 131.475L70.3866 129.518C69.7215 129.127 68.7904 129.127 68.2583 129.388L63.7358 131.997C63.2037 132.258 63.2037 132.91 63.8688 133.171L67.3272 135.128C67.8593 135.65 68.7904 135.65 69.4555 135.258Z" fill="#1F2855"/>
<path d="M61.2084 139.955L65.7309 137.346C66.263 137.085 66.263 136.433 65.5979 136.172L62.1395 134.215C61.4744 133.824 60.5433 133.824 60.0112 134.085L55.4887 136.694C54.9566 136.955 54.9566 137.607 55.6217 137.868L59.0801 139.825C59.6122 140.216 60.6763 140.346 61.2084 139.955Z" fill="#1F2855"/>
<path d="M52.9618 144.651L57.4844 142.042C58.0164 141.781 58.0164 141.129 57.3513 140.868L53.8929 138.911C53.2278 138.52 52.2967 138.52 51.7647 138.78L47.2421 141.389C46.7101 141.65 46.7101 142.303 47.3751 142.564L50.8335 144.52C51.3656 144.912 52.4298 144.912 52.9618 144.651Z" fill="#1F2855"/>
<path d="M44.7147 149.347L49.2373 146.738C49.7693 146.477 49.7693 145.825 49.1043 145.564L45.6459 143.607C44.9808 143.216 44.0497 143.216 43.5176 143.477L38.995 146.086C38.463 146.347 38.463 146.999 39.1281 147.26L42.5865 149.217C43.1185 149.608 44.1827 149.608 44.7147 149.347Z" fill="#1F2855"/>
<path d="M118.672 115.3L133.702 106.82C134.101 106.559 134.101 106.168 133.569 105.907L129.446 103.559C128.914 103.298 128.249 103.298 127.85 103.559L112.819 112.038C112.42 112.299 112.42 112.691 112.952 112.951L117.075 115.169C117.474 115.56 118.273 115.56 118.672 115.3Z" fill="#1F2855"/>
<path d="M109.227 120.648L113.749 118.039C114.282 117.778 114.282 117.126 113.616 116.865L110.158 114.908C109.493 114.517 108.562 114.517 108.03 114.778L103.507 117.387C102.975 117.648 102.975 118.3 103.64 118.561L107.099 120.518C107.764 120.909 108.695 120.909 109.227 120.648Z" fill="#1F2855"/>
<path d="M100.98 125.214L105.502 122.605C106.034 122.344 106.034 121.692 105.369 121.431L101.911 119.474C101.246 119.083 100.315 119.083 99.7827 119.343L95.2602 121.953C94.7281 122.213 94.7281 122.866 95.3932 123.127L98.8516 125.083C99.5167 125.475 100.448 125.605 100.98 125.214Z" fill="#1F2855"/>
<path d="M92.8661 129.91L97.3887 127.301C97.9207 127.04 97.9207 126.388 97.2556 126.127L93.7972 124.17C93.1321 123.779 92.201 123.779 91.669 124.04L87.1464 126.649C86.6144 126.91 86.6144 127.562 87.2794 127.823L90.7378 129.78C91.2699 130.171 92.201 130.301 92.8661 129.91Z" fill="#1F2855"/>
<path d="M84.619 134.606L89.1416 131.997C89.6736 131.736 89.6736 131.084 89.0086 130.823L85.5502 128.866C84.8851 128.475 83.9539 128.475 83.4219 128.736L78.8993 131.345C78.3673 131.606 78.3673 132.258 79.0324 132.519L82.4908 134.476C83.0228 134.867 84.087 134.867 84.619 134.606Z" fill="#1F2855"/>
<path d="M76.372 139.303L80.8945 136.694C81.4266 136.433 81.4266 135.78 80.7615 135.52L77.3031 133.563C76.638 133.171 75.7069 133.171 75.1748 133.432L70.6523 136.041C70.1202 136.302 70.1202 136.955 70.7853 137.215L74.2437 139.172C74.7758 139.564 75.8399 139.564 76.372 139.303Z" fill="#1F2855"/>
<path d="M68.1254 143.869L72.6479 141.26C73.18 140.999 73.18 140.346 72.5149 140.085L69.0565 138.129C68.3914 137.737 67.4603 137.737 66.9282 137.998L62.4057 140.607C61.8736 140.868 61.8736 141.52 62.5387 141.781L65.9971 143.738C66.5292 144.13 67.5933 144.26 68.1254 143.869Z" fill="#1F2855"/>
<path d="M52.1636 153L63.204 146.738C64.0021 146.216 63.8691 145.433 62.938 144.912L60.5437 143.607C59.6125 143.085 58.1494 143.085 57.3513 143.477L46.3109 149.738C45.5129 150.26 45.6459 151.043 46.577 151.565L48.9713 152.869C49.9024 153.391 51.3656 153.391 52.1636 153Z" fill="#1F2855"/>
<path d="M120.667 122.083L140.353 110.864C140.885 110.473 140.885 109.951 140.22 109.56L136.895 107.733C136.23 107.342 135.165 107.342 134.633 107.603L114.947 118.691C114.415 119.083 114.415 119.604 115.08 119.996L118.405 121.822C119.07 122.344 120.002 122.344 120.667 122.083Z" fill="#1F2855"/>
<path d="M108.03 129.257L112.553 126.648C113.085 126.387 113.085 125.735 112.42 125.474L108.961 123.517C108.296 123.126 107.365 123.126 106.833 123.387L102.31 125.996C101.778 126.257 101.778 126.909 102.444 127.17L105.769 129.127C106.434 129.518 107.498 129.518 108.03 129.257Z" fill="#1F2855"/>
<path d="M99.7831 133.824L104.306 131.215C104.838 130.954 104.838 130.301 104.173 130.041L100.714 128.084C100.049 127.692 99.118 127.692 98.586 127.953L94.0634 130.562C93.5313 130.823 93.5313 131.475 94.1964 131.736L97.6548 133.693C98.1869 134.084 99.251 134.215 99.7831 133.824Z" fill="#1F2855"/>
<path d="M91.536 138.52L96.0586 135.911C96.5906 135.65 96.5906 134.998 95.9256 134.737L92.4671 132.78C91.8021 132.389 90.871 132.389 90.3389 132.65L85.8163 135.259C85.2843 135.52 85.2843 136.172 85.9494 136.433L89.4078 138.389C89.9398 138.781 91.004 138.781 91.536 138.52Z" fill="#1F2855"/>
<path d="M83.289 143.216L87.8115 140.607C88.3436 140.346 88.3436 139.694 87.6785 139.433L84.2201 137.476C83.555 137.085 82.6239 137.085 82.0918 137.346L77.5693 139.955C77.0372 140.216 77.0372 140.868 77.7023 141.129L81.1607 143.086C81.8258 143.477 82.7569 143.477 83.289 143.216Z" fill="#1F2855"/>
<path d="M75.0424 147.782L79.5649 145.173C80.097 144.912 80.097 144.26 79.4319 143.999L75.9735 142.042C75.3084 141.651 74.3773 141.651 73.8452 141.912L69.3227 144.521C68.7906 144.782 68.7906 145.434 69.4557 145.695L72.9141 147.652C73.5792 148.173 74.5103 148.173 75.0424 147.782Z" fill="#1F2855"/>
<path d="M59.0802 156.913L70.1205 150.652C70.9186 150.13 70.7856 149.347 69.8545 148.825L67.4602 147.521C66.5291 146.999 65.0659 146.999 64.2678 147.39L53.2275 153.652C52.4294 154.174 52.5624 154.956 53.4935 155.478L55.8878 156.783C56.8189 157.305 58.2821 157.305 59.0802 156.913Z" fill="#1F2855"/>
<path d="M36.7331 144.651L43.1179 140.999C43.783 140.607 43.65 139.955 42.9849 139.564L39.9255 137.737C39.1274 137.346 38.0633 137.216 37.3982 137.607L31.0135 141.26C30.3484 141.651 30.4814 142.303 31.1465 142.695L34.2058 144.521C35.0039 144.912 36.2011 145.043 36.7331 144.651Z" fill="#1F2855"/>
</g>
<path d="M281.768 92.0732L209.896 132.295C207.759 133.474 207.759 136.619 209.896 137.798L313.563 196.755C314.499 197.279 315.834 197.279 316.77 196.755L388.776 156.14C390.913 154.961 390.913 151.817 388.776 150.637L284.975 92.0732C284.04 91.5492 282.837 91.5492 281.768 92.0732Z" fill="white"/>
<path d="M285.914 2.46922L285.914 2.46905C284.347 1.44411 282.386 1.44337 280.817 2.34138L280.81 2.34503L280.803 2.34777L280.307 2.5479L386.222 65.3052L386.275 65.3364V65.3977V145.935L388.655 144.829C388.656 144.829 388.657 144.829 388.658 144.828C390.358 143.929 391.403 142.132 391.403 140.339V140.338L391.938 65.9218C391.938 65.9216 391.938 65.9213 391.938 65.921C391.937 64.126 390.89 62.3277 389.32 61.4297L285.914 2.46922ZM285.914 2.46922L285.92 2.47247L389.32 61.4297L285.914 2.46922Z" fill="#FBFDFE" stroke="black" stroke-width="0.215245"/>
<path d="M391.345 140.339V140.34C391.345 142.134 390.299 143.93 388.599 144.829L386.217 145.936V65.469L387.178 65.0404L387.855 64.7673C388.322 64.76 388.86 64.5159 389.294 64.2605C389.294 64.2604 389.294 64.2603 389.294 64.2603L391.132 63.1949C391.539 63.8484 391.879 64.596 391.879 65.9228C391.879 65.9229 391.879 65.9231 391.879 65.9232L391.345 140.339Z" fill="#0093AD" stroke="black" stroke-width="0.215245"/>
<path d="M279.191 88.641L279.191 88.6409L207.319 128.863L207.318 128.863C205.255 130.001 205.255 133.039 207.318 134.177L207.319 134.178L310.986 193.135C311.888 193.641 313.184 193.641 314.087 193.135L279.191 88.641ZM279.191 88.641L279.195 88.6387C280.232 88.0032 281.387 88.0076 282.283 88.6351L282.283 88.6355L282.292 88.6407L386.093 147.205L386.094 147.205C388.157 148.344 388.157 151.381 386.094 152.52L386.093 152.52L314.087 193.135L279.191 88.641Z" fill="#219BA8" stroke="black" stroke-width="0.215245"/>
<path d="M273.581 87.8925L273.582 87.8924C278.09 85.2913 283.66 85.2913 288.169 87.8924L288.215 87.8129L288.169 87.8925L387.641 145.246V149.363L205.771 132.64V126.904L273.581 87.8925Z" fill="#3666F5" stroke="black" stroke-width="0.215245"/>
<path d="M279.191 88.6546L279.191 88.6546L279.195 88.6524C280.224 88.0217 281.37 88.0212 282.263 88.6346L313.751 146.07L313.766 146.097L313.793 146.112C315.857 147.251 315.857 150.288 313.793 151.427L313.74 151.456L313.738 151.517L312.338 193.459C312.331 193.459 312.323 193.46 312.316 193.46C312.211 193.464 312.098 193.469 311.939 193.449C311.72 193.422 311.42 193.345 310.982 193.147L207.319 134.192L207.318 134.191C205.255 133.053 205.255 130.015 207.318 128.877L207.319 128.876L279.191 88.6546Z" fill="#219BA8" stroke="black" stroke-width="0.215245"/>
<path d="M278.578 5.22599L278.578 5.22599V5.22506C278.578 2.9476 280.893 1.69489 282.688 2.82679L282.688 2.82689L282.693 2.82936L388.898 63.0967L388.899 63.097C389.8 63.6022 390.313 64.4835 390.313 65.4924L389.779 142.398V142.399C389.779 144.544 387.464 145.932 385.532 144.795L385.531 144.795L279.325 84.5272L279.325 84.5269C278.424 84.0218 277.911 83.1406 277.91 82.1319C277.91 82.1318 277.91 82.1316 277.91 82.1315L278.578 5.22599Z" fill="#1F2855" stroke="black" stroke-width="0.215245"/>
<path d="M282.586 14.1343H282.586V14.1336C282.586 12.5153 284.363 11.5182 285.761 12.3907L285.761 12.3908L285.764 12.3928L385.423 69.3842C385.423 69.3843 385.423 69.3844 385.423 69.3845C386.054 69.7559 386.438 70.504 386.438 71.2567L386.038 133.227V133.227C386.038 134.976 384.128 135.974 382.729 135.101L382.729 135.101L382.725 135.099L283.2 77.9767C283.2 77.9766 283.2 77.9765 283.2 77.9764C282.569 77.6049 282.185 76.8571 282.185 76.1046C282.185 76.1045 282.185 76.1044 282.185 76.1042L282.586 14.1343Z" fill="#D0EBF0" stroke="black" stroke-width="0.215245"/>
<path d="M207.319 124.806L207.318 124.806C205.255 125.944 205.255 128.982 207.318 130.12L207.319 130.121L310.986 189.078C311.888 189.583 313.184 189.583 314.087 189.078L207.319 124.806ZM207.319 124.806L279.189 84.5851M207.319 124.806L279.189 84.5851M279.189 84.5851C280.229 84.0759 281.392 84.0794 282.292 84.5835L279.189 84.5851ZM386.093 148.463L314.087 189.078L282.292 84.5836L386.093 143.148L386.094 143.148C388.157 144.286 388.157 147.324 386.094 148.462L386.093 148.463Z" fill="#FBFDFE" stroke="black" stroke-width="0.215245"/>
<path d="M266.447 134.931L247.076 145.805C246.007 146.46 246.007 148.032 247.076 148.687L275.665 164.933C276.199 165.195 276.867 165.195 277.401 164.933L296.772 154.059C297.841 153.404 297.841 151.832 296.772 151.177L268.183 135.062C267.516 134.669 266.981 134.669 266.447 134.931Z" fill="#1F2855"/>
<path d="M369.178 133.631L367.123 134.816L290.4 91.3156L292.444 90.2547L369.178 133.631Z" fill="white" stroke="black" stroke-width="0.215245"/>
<path d="M287.02 99.6868L281.676 96.6734C281.142 96.2803 281.142 95.7563 281.81 95.3632L285.15 93.529C285.818 93.1359 286.887 93.1359 287.421 93.398L292.765 96.4114C293.299 96.8044 293.299 97.3285 292.631 97.7215L289.291 99.5558C288.623 99.9488 287.555 99.9488 287.02 99.6868Z" fill="white"/>
<path d="M296.505 105.059L291.161 102.045C290.627 101.652 290.627 101.128 291.295 100.735L294.635 98.901C295.303 98.508 296.371 98.508 296.906 98.77L302.249 101.783C302.784 102.176 302.784 102.7 302.116 103.094L298.776 104.928C298.108 105.321 297.039 105.321 296.505 105.059Z" fill="white"/>
<path d="M306.391 110.561L301.048 107.548C300.513 107.155 300.513 106.631 301.181 106.238L304.521 104.403C305.189 104.01 306.258 104.01 306.792 104.272L312.136 107.286C312.67 107.679 312.67 108.203 312.002 108.596L308.662 110.43C307.994 110.954 306.926 110.954 306.391 110.561Z" fill="white"/>
<path d="M315.876 115.933L310.532 112.919C309.998 112.526 309.998 112.002 310.666 111.609L314.006 109.775C314.674 109.382 315.743 109.382 316.277 109.644L321.621 112.657C322.155 113.051 322.155 113.575 321.487 113.968L318.147 115.933C317.479 116.326 316.41 116.326 315.876 115.933Z" fill="white"/>
<path d="M325.36 121.305L320.017 118.291C319.482 117.898 319.482 117.374 320.15 116.981L323.49 115.147C324.158 114.754 325.227 114.754 325.761 115.016L331.105 118.029C331.639 118.422 331.639 118.947 330.971 119.34L327.632 121.174C326.964 121.698 325.895 121.698 325.36 121.305Z" fill="white"/>
<path d="M334.713 126.676L329.369 123.663C328.835 123.27 328.835 122.746 329.502 122.353L332.842 120.519C333.51 120.126 334.579 120.126 335.113 120.388L340.457 123.401C340.991 123.794 340.991 124.318 340.323 124.711L336.984 126.545C336.449 127.07 335.381 127.07 334.713 126.676Z" fill="white"/>
<path d="M344.197 132.048L338.854 129.034C338.319 128.641 338.319 128.117 338.987 127.724L342.327 125.89C342.995 125.497 344.064 125.497 344.598 125.759L349.942 128.772C350.476 129.165 350.476 129.689 349.808 130.082L346.468 131.917C345.934 132.441 344.865 132.441 344.197 132.048Z" fill="white"/>
<path d="M353.682 137.42L348.339 134.406C347.804 134.013 347.804 133.489 348.472 133.096L351.812 131.262C352.48 130.869 353.549 130.869 354.083 131.131L359.427 134.144C359.961 134.537 359.961 135.061 359.293 135.454L355.953 137.289C355.419 137.813 354.35 137.813 353.682 137.42Z" fill="white"/>
<path d="M363.167 142.791L357.823 139.777C357.289 139.384 357.289 138.86 357.957 138.467L361.297 136.633C361.965 136.24 363.034 136.24 363.568 136.502L368.912 139.515C369.446 139.908 369.446 140.432 368.778 140.825L365.438 142.66C364.904 143.184 363.835 143.184 363.167 142.791Z" fill="white"/>
<path d="M277.936 103.748L273.394 101.128C272.859 100.866 272.859 100.211 273.527 99.9488L277.001 97.9836C277.669 97.5905 278.604 97.5905 279.138 97.8525L283.68 100.473C284.215 100.735 284.215 101.39 283.547 101.652L280.073 103.617C279.539 104.01 278.604 104.01 277.936 103.748Z" fill="white"/>
<path d="M286.219 108.465L281.676 105.845C281.142 105.583 281.142 104.928 281.81 104.666L285.283 102.7C285.951 102.307 286.887 102.307 287.421 102.569L291.963 105.19C292.497 105.452 292.497 106.107 291.829 106.369L288.49 108.334C287.822 108.727 286.753 108.727 286.219 108.465Z" fill="white"/>
<path d="M294.902 113.312L290.36 110.692C289.825 110.43 289.825 109.775 290.493 109.513L293.967 107.548C294.635 107.154 295.57 107.154 296.104 107.417L300.646 110.037C301.181 110.299 301.181 110.954 300.513 111.216L297.039 113.181C296.371 113.574 295.436 113.705 294.902 113.312Z" fill="white"/>
<path d="M303.184 118.029L298.642 115.409C298.108 115.147 298.108 114.492 298.776 114.23L302.249 112.264C302.917 111.871 303.852 111.871 304.387 112.133L308.929 114.754C309.463 115.016 309.463 115.671 308.795 115.933L305.322 117.898C304.654 118.291 303.719 118.291 303.184 118.029Z" fill="white"/>
<path d="M311.468 122.746L306.926 120.125C306.391 119.863 306.391 119.208 307.059 118.946L310.532 116.981C311.2 116.588 312.136 116.588 312.67 116.85L317.212 119.47C317.746 119.732 317.746 120.388 317.079 120.65L313.605 122.615C312.937 123.008 312.002 123.008 311.468 122.746Z" fill="white"/>
<path d="M319.75 127.331L315.208 124.711C314.674 124.449 314.674 123.794 315.342 123.532L318.815 121.567C319.483 121.174 320.418 121.174 320.953 121.436L325.495 124.056C326.029 124.318 326.029 124.973 325.361 125.235L321.888 127.331C321.22 127.593 320.285 127.724 319.75 127.331Z" fill="white"/>
<path d="M328.033 132.048L323.491 129.427C322.957 129.165 322.957 128.51 323.625 128.248L327.098 126.283C327.766 125.89 328.701 125.89 329.235 126.152L333.778 128.772C334.312 129.034 334.312 129.689 333.644 129.951L330.171 131.917C329.503 132.31 328.567 132.31 328.033 132.048Z" fill="white"/>
<path d="M336.182 136.764L331.639 134.144C331.105 133.882 331.105 133.227 331.773 132.965L335.246 131C335.914 130.607 336.849 130.607 337.384 130.869L341.926 133.489C342.46 133.751 342.46 134.406 341.792 134.668L338.319 136.633C337.785 137.026 336.849 137.026 336.182 136.764Z" fill="white"/>
<path d="M344.465 141.35L339.923 138.729C339.388 138.467 339.388 137.812 340.056 137.55L343.53 135.585C344.198 135.192 345.133 135.192 345.667 135.454L350.209 138.074C350.744 138.336 350.744 138.991 350.076 139.254L346.602 141.219C346.068 141.743 344.999 141.743 344.465 141.35Z" fill="white"/>
<path d="M248.011 120.125L243.87 117.767C243.336 117.505 243.469 116.981 244.004 116.719L247.076 114.885C247.611 114.623 248.546 114.492 249.08 114.754L253.221 117.112C253.756 117.374 253.622 117.898 253.088 118.16L250.015 119.994C249.481 120.387 248.546 120.387 248.011 120.125Z" fill="white"/>
<path d="M255.493 124.318L251.351 121.959C250.817 121.697 250.951 121.173 251.485 120.911L254.558 119.077C255.092 118.815 256.027 118.684 256.561 118.946L260.703 121.304C261.237 121.566 261.104 122.09 260.569 122.352L257.497 124.187C256.829 124.58 256.027 124.58 255.493 124.318Z" fill="white"/>
<path d="M263.24 128.773L259.099 126.414C258.565 126.152 258.698 125.628 259.233 125.366L262.305 123.532C262.84 123.27 263.775 123.139 264.309 123.401L268.45 125.759C268.985 126.021 268.851 126.545 268.317 126.807L265.244 128.641C264.576 128.904 263.775 129.035 263.24 128.773Z" fill="white"/>
<path d="M272.058 133.751L266.715 130.738C266.18 130.476 266.18 129.821 266.848 129.559L269.787 127.986C270.455 127.593 271.39 127.593 271.925 127.855L277.268 130.869C277.803 131.131 277.803 131.786 277.135 132.048L274.196 133.62C273.661 134.013 272.726 134.013 272.058 133.751Z" fill="white"/>
<path d="M300.379 149.735L276.467 136.24C275.932 135.847 275.932 135.323 276.6 134.93L279.406 133.358C280.074 132.965 281.142 132.965 281.677 133.227L305.59 146.722C306.124 147.115 306.124 147.639 305.456 148.032L302.651 149.604C301.983 149.997 300.914 149.997 300.379 149.735Z" fill="white"/>
<path d="M309.063 154.582L304.921 152.224C304.387 151.962 304.52 151.438 305.055 151.176L308.127 149.342C308.662 149.08 309.597 148.949 310.131 149.211L314.273 151.569C314.807 151.831 314.673 152.355 314.139 152.617L311.066 154.451C310.398 154.844 309.597 154.975 309.063 154.582Z" fill="white"/>
<path d="M323.089 159.954L319.616 157.989C319.349 157.858 319.349 157.596 319.749 157.465L320.551 156.941C320.818 156.81 321.353 156.81 321.62 156.941L325.093 158.906C325.36 159.037 325.36 159.299 324.96 159.43L324.158 159.954C323.891 160.085 323.356 160.216 323.089 159.954Z" fill="white"/>
<path d="M320.953 161.264L317.479 159.299C317.212 159.168 317.212 158.906 317.613 158.775L318.414 158.251C318.682 158.12 319.216 158.12 319.483 158.251L322.956 160.216C323.224 160.347 323.224 160.609 322.823 160.74L322.021 161.264C321.621 161.395 321.22 161.395 320.953 161.264Z" fill="white"/>
<path d="M325.762 164.147L322.288 162.182C322.021 162.051 322.021 161.789 322.422 161.657L323.223 161.133C323.491 161.002 324.025 161.002 324.292 161.133L327.766 163.099C328.033 163.23 328.033 163.492 327.632 163.623L326.83 164.147C326.43 164.278 326.029 164.278 325.762 164.147Z" fill="white"/>
<path d="M316.009 158.513L312.536 156.548C312.269 156.417 312.269 156.155 312.669 156.024L313.471 155.5C313.738 155.369 314.273 155.369 314.54 155.5L318.013 157.465C318.28 157.596 318.28 157.858 317.879 157.989L317.078 158.513C316.677 158.644 316.276 158.644 316.009 158.513Z" fill="white"/>
<path d="M272.592 109.906L265.245 105.713C264.577 105.32 264.71 104.665 265.378 104.141L268.317 102.438C269.119 102.045 270.321 101.914 270.989 102.307L278.337 106.5C279.005 106.893 278.871 107.548 278.203 108.072L275.264 109.775C274.463 110.168 273.26 110.299 272.592 109.906Z" fill="white"/>
<path d="M289.292 119.34L284.75 116.719C284.215 116.457 284.215 115.802 284.883 115.54L288.357 113.575C289.025 113.182 289.96 113.182 290.494 113.444L295.036 116.064C295.571 116.326 295.571 116.981 294.903 117.243L291.429 119.209C290.761 119.602 289.826 119.602 289.292 119.34Z" fill="white"/>
<path d="M280.875 114.492L276.333 111.872C275.798 111.61 275.798 110.954 276.466 110.692L279.94 108.727C280.608 108.334 281.543 108.334 282.077 108.596L286.619 111.217C287.154 111.479 287.154 112.134 286.486 112.396L283.012 114.361C282.344 114.754 281.409 114.885 280.875 114.492Z" fill="white"/>
<path d="M297.44 123.925L292.898 121.305C292.364 121.043 292.364 120.388 293.032 120.126L296.505 118.16C297.173 117.767 298.108 117.767 298.643 118.029L303.185 120.65C303.719 120.912 303.719 121.567 303.051 121.829L299.578 123.794C299.043 124.187 298.108 124.318 297.44 123.925Z" fill="white"/>
<path d="M305.723 128.641L301.181 126.021C300.647 125.759 300.647 125.104 301.314 124.842L304.788 122.877C305.456 122.484 306.391 122.484 306.925 122.746L311.467 125.366C312.002 125.628 312.002 126.283 311.334 126.545L307.86 128.51C307.326 128.903 306.257 128.903 305.723 128.641Z" fill="white"/>
<path d="M314.005 133.358L309.463 130.738C308.929 130.476 308.929 129.821 309.597 129.559L313.07 127.593C313.738 127.2 314.673 127.2 315.208 127.462L319.75 130.083C320.284 130.345 320.284 131 319.616 131.262L316.143 133.227C315.608 133.62 314.54 133.62 314.005 133.358Z" fill="white"/>
<path d="M322.288 138.075L317.746 135.455C317.212 135.193 317.212 134.537 317.88 134.275L321.353 132.31C322.021 131.917 322.956 131.917 323.491 132.179L328.033 134.8C328.567 135.062 328.567 135.717 327.899 135.979L324.426 137.944C323.892 138.337 322.823 138.337 322.288 138.075Z" fill="white"/>
<path d="M330.571 142.66L326.029 140.04C325.495 139.778 325.495 139.123 326.163 138.861L329.636 136.896C330.304 136.503 331.239 136.503 331.773 136.765L336.316 139.385C336.85 139.647 336.85 140.302 336.182 140.564L332.709 142.529C332.041 142.922 331.106 143.053 330.571 142.66Z" fill="white"/>
<path d="M338.853 147.377L334.311 144.756C333.777 144.494 333.777 143.839 334.445 143.577L337.918 141.612C338.586 141.219 339.521 141.219 340.056 141.481L344.598 144.101C345.132 144.363 345.132 145.018 344.464 145.28L340.991 147.246C340.323 147.639 339.388 147.639 338.853 147.377Z" fill="white"/>
<path d="M347.137 152.094L342.594 149.473C342.06 149.211 342.06 148.556 342.728 148.294L346.201 146.329C346.869 145.936 347.805 145.936 348.339 146.198L352.881 148.818C353.415 149.08 353.415 149.735 352.747 149.997L349.274 151.963C348.606 152.356 347.671 152.356 347.137 152.094Z" fill="white"/>
<path d="M272.859 117.898L257.763 109.382C257.362 109.12 257.362 108.727 257.897 108.465L262.038 106.107C262.573 105.845 263.24 105.845 263.641 106.107L278.604 114.623C279.004 114.885 279.004 115.278 278.47 115.54L274.329 117.898C273.928 118.16 273.26 118.16 272.859 117.898Z" fill="white"/>
<path d="M282.211 123.27L277.669 120.649C277.135 120.387 277.135 119.732 277.803 119.47L281.276 117.505C281.944 117.112 282.879 117.112 283.414 117.374L287.956 119.994C288.49 120.256 288.49 120.911 287.822 121.173L284.482 123.139C283.814 123.532 282.746 123.532 282.211 123.27Z" fill="white"/>
<path d="M290.494 127.986L285.951 125.366C285.417 125.104 285.417 124.449 286.085 124.187L289.558 122.221C290.226 121.828 291.161 121.828 291.696 122.09L296.238 124.711C296.772 124.973 296.772 125.628 296.104 125.89L292.631 127.855C292.097 128.248 291.028 128.248 290.494 127.986Z" fill="white"/>
<path d="M298.776 132.572L294.234 129.952C293.7 129.69 293.7 129.035 294.368 128.773L297.841 126.807C298.509 126.414 299.444 126.414 299.979 126.676L304.521 129.297C305.055 129.559 305.055 130.214 304.387 130.476L300.914 132.441C300.379 132.834 299.311 132.965 298.776 132.572Z" fill="white"/>
<path d="M307.059 137.289L302.517 134.668C301.982 134.406 301.982 133.751 302.65 133.489L306.124 131.524C306.792 131.131 307.727 131.131 308.261 131.393L312.803 134.013C313.338 134.275 313.338 134.93 312.67 135.192L309.196 137.158C308.528 137.551 307.593 137.551 307.059 137.289Z" fill="white"/>
<path d="M315.342 142.005L310.8 139.385C310.266 139.123 310.266 138.468 310.934 138.206L314.407 136.24C315.075 135.847 316.01 135.847 316.544 136.109L321.087 138.73C321.621 138.992 321.621 139.647 320.953 139.909L317.48 141.874C316.812 142.267 315.877 142.267 315.342 142.005Z" fill="white"/>
<path d="M323.624 146.591L319.082 143.97C318.548 143.708 318.548 143.053 319.216 142.791L322.689 140.826C323.357 140.433 324.292 140.433 324.827 140.695L329.369 143.315C329.903 143.577 329.903 144.232 329.235 144.494L325.762 146.46C325.094 146.984 324.159 146.984 323.624 146.591Z" fill="white"/>
<path d="M339.656 155.762L328.568 149.473C327.766 148.949 327.9 148.163 328.835 147.639L331.24 146.329C332.175 145.805 333.644 145.805 334.446 146.198L345.534 152.486C346.336 153.01 346.202 153.797 345.267 154.321L342.862 155.631C341.927 156.155 340.457 156.155 339.656 155.762Z" fill="white"/>
<path d="M270.856 124.711L251.084 113.443C250.55 113.05 250.55 112.526 251.218 112.133L254.558 110.299C255.226 109.906 256.294 109.906 256.829 110.168L276.6 121.304C277.135 121.697 277.135 122.222 276.467 122.615L273.127 124.449C272.459 124.973 271.39 124.973 270.856 124.711Z" fill="white"/>
<path d="M283.547 131.917L279.005 129.296C278.47 129.034 278.47 128.379 279.138 128.117L282.612 126.152C283.28 125.759 284.215 125.759 284.749 126.021L289.291 128.641C289.826 128.903 289.826 129.558 289.158 129.82L285.684 131.786C285.016 132.179 284.081 132.179 283.547 131.917Z" fill="white"/>
<path d="M291.829 136.502L287.287 133.882C286.753 133.62 286.753 132.965 287.421 132.703L290.894 130.737C291.562 130.344 292.497 130.344 293.032 130.606L297.574 133.227C298.108 133.489 298.108 134.144 297.44 134.406L293.967 136.371C293.299 136.764 292.364 136.895 291.829 136.502Z" fill="white"/>
<path d="M300.112 141.219L295.57 138.599C295.036 138.337 295.036 137.682 295.704 137.42L299.177 135.454C299.845 135.061 300.78 135.061 301.314 135.323L305.857 137.944C306.391 138.206 306.391 138.861 305.723 139.123L302.25 141.088C301.582 141.481 300.647 141.612 300.112 141.219Z" fill="white"/>
<path d="M308.395 145.936L303.853 143.315C303.319 143.053 303.319 142.398 303.987 142.136L307.46 140.171C308.128 139.778 309.063 139.778 309.598 140.04L314.14 142.66C314.674 142.922 314.674 143.577 314.006 143.839L310.533 145.805C309.865 146.198 308.93 146.198 308.395 145.936Z" fill="white"/>
<path d="M316.678 150.652L312.135 148.032C311.601 147.77 311.601 147.115 312.269 146.853L315.742 144.887C316.41 144.494 317.346 144.494 317.88 144.756L322.422 147.377C322.956 147.639 322.956 148.294 322.288 148.556L318.815 150.521C318.147 150.914 317.212 150.914 316.678 150.652Z" fill="white"/>
<path d="M332.708 159.692L321.62 153.403C320.819 152.879 320.952 152.093 321.887 151.569L324.292 150.259C325.227 149.735 326.697 149.735 327.498 150.128L338.586 156.417C339.388 156.941 339.254 157.727 338.319 158.251L335.914 159.561C334.979 160.085 333.51 160.216 332.708 159.692Z" fill="white"/>
<path d="M355.019 147.377L348.606 143.709C347.938 143.316 348.072 142.661 348.74 142.268L351.812 140.433C352.614 140.04 353.683 139.909 354.351 140.302L360.763 143.971C361.431 144.364 361.297 145.019 360.629 145.412L357.557 147.246C356.755 147.639 355.687 147.77 355.019 147.377Z" fill="white"/>
<g filter="url(#filter1_i_803_18837)">
<path d="M287.02 99.1633L281.676 96.1499C281.142 95.7569 281.142 95.2328 281.81 94.8398L285.15 93.0055C285.818 92.6125 286.887 92.6125 287.421 92.8745L292.765 95.8879C293.299 96.2809 293.299 96.805 292.631 97.198L289.291 99.0323C288.623 99.4253 287.688 99.4253 287.02 99.1633Z" fill="#1F2855"/>
<path d="M296.505 104.535L291.161 101.522C290.627 101.128 290.627 100.604 291.295 100.211L294.635 98.3771C295.303 97.9841 296.371 97.9841 296.906 98.2461L302.249 101.26C302.784 101.653 302.784 102.177 302.116 102.57L298.776 104.404C298.108 104.797 297.173 104.797 296.505 104.535Z" fill="#1F2855"/>
<path d="M306.391 110.038L301.047 107.024C300.513 106.631 300.513 106.107 301.181 105.714L304.52 103.88C305.188 103.487 306.257 103.487 306.792 103.749L312.135 106.762C312.67 107.155 312.67 107.68 312.002 108.073L308.662 109.907C307.994 110.431 306.925 110.431 306.391 110.038Z" fill="#1F2855"/>
<path d="M315.876 115.409L310.532 112.396C309.998 112.003 309.998 111.479 310.666 111.086L314.006 109.252C314.674 108.859 315.743 108.859 316.277 109.121L321.621 112.134C322.155 112.527 322.155 113.051 321.487 113.444L318.147 115.278C317.479 115.802 316.41 115.802 315.876 115.409Z" fill="#1F2855"/>
<path d="M325.361 120.781L320.017 117.768C319.483 117.375 319.483 116.85 320.151 116.457L323.491 114.623C324.159 114.23 325.227 114.23 325.762 114.492L331.105 117.506C331.64 117.899 331.64 118.423 330.972 118.816L327.632 120.65C326.964 121.174 325.895 121.174 325.361 120.781Z" fill="#1F2855"/>
<path d="M334.846 126.153L329.503 123.14C328.968 122.747 328.968 122.223 329.636 121.83L332.976 119.995C333.644 119.602 334.713 119.602 335.247 119.864L340.591 122.878C341.125 123.271 341.125 123.795 340.457 124.188L337.117 126.022C336.449 126.546 335.381 126.546 334.846 126.153Z" fill="#1F2855"/>
<path d="M344.331 131.525L338.987 128.511C338.453 128.118 338.453 127.594 339.121 127.201L342.46 125.367C343.128 124.974 344.197 124.974 344.731 125.236L350.075 128.249C350.61 128.642 350.61 129.166 349.942 129.559L346.602 131.394C345.934 131.918 344.865 131.918 344.331 131.525Z" fill="#1F2855"/>
<path d="M353.816 136.896L348.472 133.882C347.938 133.489 347.938 132.965 348.606 132.572L351.946 130.738C352.614 130.345 353.682 130.345 354.217 130.607L359.56 133.62C360.095 134.014 360.095 134.538 359.427 134.931L356.087 136.765C355.419 137.289 354.35 137.289 353.816 136.896Z" fill="#1F2855"/>
<path d="M363.301 142.268L357.957 139.254C357.423 138.861 357.423 138.337 358.091 137.944L361.431 136.11C362.099 135.717 363.167 135.717 363.702 135.979L369.045 138.992C369.58 139.385 369.58 139.909 368.912 140.303L365.572 142.137C364.904 142.661 363.835 142.661 363.301 142.268Z" fill="#1F2855"/>
<path d="M278.069 103.225L273.527 100.604C272.993 100.342 272.993 99.6873 273.661 99.4253L277.134 97.4601C277.802 97.0671 278.737 97.0671 279.272 97.3291L283.814 99.9494C284.348 100.211 284.348 100.866 283.68 101.128L280.207 103.094C279.539 103.487 278.604 103.487 278.069 103.225Z" fill="#1F2855"/>
<path d="M286.352 107.942L281.81 105.321C281.275 105.059 281.275 104.404 281.943 104.142L285.417 102.177C286.085 101.784 287.02 101.784 287.554 102.046L292.096 104.666C292.631 104.928 292.631 105.583 291.963 105.845L288.489 107.811C287.821 108.204 286.886 108.204 286.352 107.942Z" fill="#1F2855"/>
<path d="M294.902 112.789L290.36 110.168C289.825 109.906 289.825 109.251 290.493 108.989L293.967 107.024C294.635 106.631 295.57 106.631 296.104 106.893L300.646 109.513C301.181 109.775 301.181 110.43 300.513 110.693L297.039 112.658C296.505 113.051 295.436 113.051 294.902 112.789Z" fill="#1F2855"/>
<path d="M303.184 117.506L298.642 114.885C298.108 114.623 298.108 113.968 298.776 113.706L302.249 111.741C302.917 111.348 303.852 111.348 304.387 111.61L308.929 114.23C309.463 114.492 309.463 115.147 308.795 115.409L305.322 117.375C304.788 117.768 303.719 117.768 303.184 117.506Z" fill="#1F2855"/>
<path d="M311.468 122.092L306.926 119.471C306.391 119.209 306.391 118.554 307.059 118.292L310.532 116.327C311.2 115.934 312.136 115.934 312.67 116.196L317.212 118.816C317.746 119.078 317.746 119.733 317.078 119.995L313.605 121.961C313.071 122.485 312.002 122.485 311.468 122.092Z" fill="#1F2855"/>
<path d="M319.75 126.808L315.208 124.188C314.674 123.926 314.674 123.27 315.342 123.008L318.815 121.043C319.483 120.65 320.418 120.65 320.953 120.912L325.495 123.532C326.029 123.795 326.029 124.45 325.361 124.712L321.888 126.808C321.22 127.07 320.285 127.201 319.75 126.808Z" fill="#1F2855"/>
<path d="M328.033 131.524L323.49 128.904C322.956 128.642 322.956 127.987 323.624 127.725L327.097 125.759C327.765 125.366 328.701 125.366 329.235 125.628L333.777 128.249C334.311 128.511 334.311 129.166 333.643 129.428L330.17 131.393C329.502 131.786 328.567 131.786 328.033 131.524Z" fill="#1F2855"/>
<path d="M336.315 136.241L331.773 133.621C331.239 133.359 331.239 132.704 331.907 132.442L335.38 130.477C336.048 130.084 336.983 130.084 337.518 130.346L342.06 132.966C342.594 133.228 342.594 133.883 341.926 134.145L338.453 136.11C337.785 136.503 336.85 136.503 336.315 136.241Z" fill="#1F2855"/>
<path d="M344.598 140.827L340.056 138.207C339.522 137.945 339.522 137.289 340.189 137.027L343.663 135.062C344.331 134.669 345.266 134.669 345.8 134.931L350.342 137.551C350.877 137.814 350.877 138.469 350.209 138.731L346.735 140.696C346.068 141.089 345.132 141.22 344.598 140.827Z" fill="#1F2855"/>
<path d="M248.145 119.602L244.003 117.244C243.469 116.982 243.602 116.458 244.137 116.195L247.209 114.361C247.744 114.099 248.679 113.968 249.213 114.23L253.355 116.589C253.889 116.851 253.755 117.375 253.221 117.637L250.148 119.471C249.481 119.864 248.545 119.864 248.145 119.602Z" fill="#1F2855"/>
<path d="M255.492 123.794L251.351 121.436C250.817 121.174 250.95 120.65 251.485 120.388L254.557 118.554C255.091 118.292 256.027 118.161 256.561 118.423L260.702 120.781C261.237 121.043 261.103 121.567 260.569 121.829L257.496 123.663C256.962 124.056 256.027 124.056 255.492 123.794Z" fill="#1F2855"/>
<path d="M263.241 128.118L259.099 125.76C258.565 125.498 258.699 124.974 259.233 124.712L262.306 122.877C262.84 122.615 263.775 122.484 264.31 122.746L268.451 125.105C268.985 125.367 268.852 125.891 268.317 126.153L265.245 127.987C264.71 128.38 263.775 128.511 263.241 128.118Z" fill="#1F2855"/>
<path d="M272.192 133.228L266.848 130.214C266.314 129.952 266.314 129.297 266.981 129.035L269.92 127.463C270.588 127.07 271.524 127.07 272.058 127.332L277.402 130.345C277.936 130.607 277.936 131.263 277.268 131.525L274.329 133.097C273.661 133.49 272.726 133.49 272.192 133.228Z" fill="#1F2855"/>
<path d="M300.379 149.211L276.466 135.586C275.932 135.193 275.932 134.669 276.6 134.275L279.405 132.703C280.073 132.31 281.142 132.31 281.676 132.572L305.589 146.067C306.123 146.46 306.123 146.984 305.455 147.377L302.65 148.949C301.982 149.473 300.913 149.473 300.379 149.211Z" fill="#1F2855"/>
<path d="M309.063 154.059L304.921 151.701C304.387 151.439 304.52 150.915 305.055 150.653L308.127 148.818C308.662 148.556 309.597 148.425 310.131 148.687L314.273 151.046C314.807 151.308 314.673 151.832 314.139 152.094L311.066 153.928C310.399 154.321 309.597 154.321 309.063 154.059Z" fill="#1F2855"/>
<path d="M323.223 159.431L319.75 157.466C319.483 157.335 319.483 157.073 319.883 156.942L320.685 156.418C320.952 156.287 321.486 156.287 321.754 156.418L325.227 158.383C325.494 158.514 325.494 158.776 325.093 158.907L324.292 159.431C323.891 159.562 323.49 159.562 323.223 159.431Z" fill="#1F2855"/>
<path d="M320.953 160.741L317.479 158.776C317.212 158.645 317.212 158.383 317.613 158.252L318.414 157.728C318.682 157.597 319.216 157.597 319.483 157.728L322.956 159.693C323.224 159.824 323.224 160.086 322.823 160.217L322.021 160.741C321.621 160.872 321.22 160.872 320.953 160.741Z" fill="#1F2855"/>
<path d="M325.762 163.492L322.288 161.527C322.021 161.396 322.021 161.134 322.422 161.003L323.223 160.479C323.491 160.348 324.025 160.348 324.292 160.479L327.766 162.444C328.033 162.575 328.033 162.837 327.632 162.968L326.83 163.492C326.563 163.623 326.029 163.754 325.762 163.492Z" fill="#1F2855"/>
<path d="M316.01 157.99L312.536 156.024C312.269 155.893 312.269 155.631 312.67 155.5L313.471 154.976C313.739 154.845 314.273 154.845 314.54 154.976L318.014 156.941C318.281 157.072 318.281 157.335 317.88 157.466L317.078 157.99C316.678 158.121 316.277 158.121 316.01 157.99Z" fill="#1F2855"/>
<path d="M272.591 109.382L265.244 105.19C264.576 104.797 264.709 104.142 265.377 103.618L268.316 101.915C269.118 101.522 270.32 101.391 270.988 101.784L278.336 105.976C279.004 106.369 278.87 107.024 278.202 107.548L275.263 109.251C274.462 109.645 273.259 109.776 272.591 109.382Z" fill="#1F2855"/>
<path d="M289.291 118.816L284.749 116.195C284.215 115.933 284.215 115.278 284.883 115.016L288.356 113.051C289.024 112.658 289.959 112.658 290.494 112.92L295.036 115.54C295.57 115.802 295.57 116.457 294.902 116.719L291.429 118.685C290.761 119.078 289.826 119.078 289.291 118.816Z" fill="#1F2855"/>
<path d="M280.875 113.968L276.333 111.348C275.798 111.086 275.798 110.431 276.466 110.169L279.94 108.204C280.608 107.811 281.543 107.811 282.077 108.073L286.619 110.693C287.154 110.955 287.154 111.61 286.486 111.872L283.012 113.837C282.478 114.23 281.409 114.361 280.875 113.968Z" fill="#1F2855"/>
<path d="M297.574 123.401L293.031 120.781C292.497 120.519 292.497 119.864 293.165 119.602L296.638 117.636C297.306 117.243 298.242 117.243 298.776 117.505L303.318 120.126C303.852 120.388 303.852 121.043 303.184 121.305L299.711 123.27C299.043 123.663 298.108 123.794 297.574 123.401Z" fill="#1F2855"/>
<path d="M305.856 128.118L301.314 125.498C300.78 125.236 300.78 124.58 301.448 124.318L304.921 122.353C305.589 121.96 306.524 121.96 307.059 122.222L311.601 124.842C312.135 125.105 312.135 125.76 311.467 126.022L307.994 127.987C307.326 128.38 306.391 128.38 305.856 128.118Z" fill="#1F2855"/>
<path d="M314.139 132.835L309.597 130.214C309.063 129.952 309.063 129.297 309.73 129.035L313.204 127.07C313.872 126.677 314.807 126.677 315.341 126.939L319.883 129.559C320.418 129.821 320.418 130.476 319.75 130.738L316.277 132.704C315.609 133.097 314.673 133.097 314.139 132.835Z" fill="#1F2855"/>
<path d="M322.288 137.42L317.746 134.8C317.211 134.538 317.211 133.883 317.879 133.621L321.353 131.655C322.021 131.262 322.956 131.262 323.49 131.524L328.032 134.145C328.567 134.407 328.567 135.062 327.899 135.324L324.425 137.289C323.891 137.813 322.956 137.813 322.288 137.42Z" fill="#1F2855"/>
<path d="M330.571 142.137L326.029 139.517C325.495 139.255 325.495 138.599 326.163 138.337L329.636 136.372C330.304 135.979 331.239 135.979 331.773 136.241L336.316 138.861C336.85 139.124 336.85 139.779 336.182 140.041L332.709 142.006C332.174 142.399 331.106 142.53 330.571 142.137Z" fill="#1F2855"/>
<path d="M338.853 146.853L334.311 144.233C333.777 143.971 333.777 143.316 334.445 143.054L337.918 141.089C338.586 140.695 339.521 140.695 340.056 140.958L344.598 143.578C345.132 143.84 345.132 144.495 344.464 144.757L340.991 146.722C340.456 147.115 339.388 147.115 338.853 146.853Z" fill="#1F2855"/>
<path d="M347.136 151.57L342.594 148.95C342.06 148.688 342.06 148.033 342.728 147.771L346.201 145.805C346.869 145.412 347.804 145.412 348.338 145.674L352.881 148.295C353.415 148.557 353.415 149.212 352.747 149.474L349.274 151.439C348.739 151.832 347.67 151.832 347.136 151.57Z" fill="#1F2855"/>
<path d="M272.859 117.375L257.763 108.859C257.362 108.597 257.362 108.204 257.897 107.942L262.038 105.583C262.573 105.321 263.24 105.321 263.641 105.583L278.737 114.099C279.138 114.361 279.138 114.754 278.604 115.016L274.462 117.244C274.061 117.637 273.26 117.637 272.859 117.375Z" fill="#1F2855"/>
<path d="M282.345 122.746L277.802 120.126C277.268 119.864 277.268 119.209 277.936 118.947L281.409 116.982C282.077 116.589 283.013 116.589 283.547 116.851L288.089 119.471C288.623 119.733 288.623 120.388 287.955 120.65L284.482 122.615C283.814 123.008 282.879 123.008 282.345 122.746Z" fill="#1F2855"/>
<path d="M290.627 127.332L286.085 124.711C285.551 124.449 285.551 123.794 286.219 123.532L289.692 121.567C290.36 121.174 291.295 121.174 291.83 121.436L296.372 124.056C296.906 124.318 296.906 124.973 296.238 125.236L292.765 127.201C292.097 127.594 291.162 127.725 290.627 127.332Z" fill="#1F2855"/>
<path d="M298.776 132.049L294.234 129.428C293.7 129.166 293.7 128.511 294.368 128.249L297.841 126.284C298.509 125.891 299.444 125.891 299.979 126.153L304.521 128.773C305.055 129.035 305.055 129.69 304.387 129.952L300.914 131.918C300.379 132.311 299.444 132.442 298.776 132.049Z" fill="#1F2855"/>
<path d="M307.059 136.765L302.517 134.145C301.982 133.883 301.982 133.227 302.65 132.965L306.124 131C306.792 130.607 307.727 130.607 308.261 130.869L312.803 133.489C313.338 133.751 313.338 134.407 312.67 134.669L309.196 136.634C308.662 137.027 307.593 137.027 307.059 136.765Z" fill="#1F2855"/>
<path d="M315.342 141.482L310.8 138.861C310.265 138.599 310.265 137.944 310.933 137.682L314.407 135.717C315.074 135.324 316.01 135.324 316.544 135.586L321.086 138.206C321.62 138.468 321.62 139.123 320.953 139.385L317.479 141.351C316.945 141.744 315.876 141.744 315.342 141.482Z" fill="#1F2855"/>
<path d="M323.624 146.067L319.082 143.447C318.548 143.185 318.548 142.53 319.216 142.268L322.689 140.302C323.357 139.909 324.292 139.909 324.827 140.171L329.369 142.792C329.903 143.054 329.903 143.709 329.235 143.971L325.762 145.936C325.227 146.329 324.159 146.46 323.624 146.067Z" fill="#1F2855"/>
<path d="M339.655 155.238L328.567 148.95C327.765 148.426 327.899 147.639 328.834 147.115L331.239 145.805C332.174 145.281 333.643 145.281 334.445 145.674L345.533 151.963C346.335 152.487 346.201 153.273 345.266 153.797L342.861 155.107C341.926 155.632 340.457 155.632 339.655 155.238Z" fill="#1F2855"/>
<path d="M270.855 124.187L251.084 112.92C250.549 112.527 250.549 112.003 251.217 111.61L254.557 109.776C255.225 109.383 256.294 109.382 256.828 109.645L276.6 120.781C277.134 121.174 277.134 121.698 276.466 122.091L273.126 123.925C272.458 124.449 271.523 124.449 270.855 124.187Z" fill="#1F2855"/>
<path d="M283.546 131.393L279.004 128.773C278.47 128.511 278.47 127.856 279.138 127.594L282.611 125.629C283.279 125.236 284.214 125.236 284.749 125.498L289.291 128.118C289.825 128.38 289.825 129.035 289.157 129.297L285.817 131.262C285.149 131.655 284.081 131.655 283.546 131.393Z" fill="#1F2855"/>
<path d="M291.829 135.979L287.287 133.358C286.752 133.096 286.752 132.441 287.42 132.179L290.894 130.214C291.562 129.821 292.497 129.821 293.031 130.083L297.573 132.703C298.108 132.965 298.108 133.62 297.44 133.882L293.966 135.848C293.432 136.241 292.363 136.372 291.829 135.979Z" fill="#1F2855"/>
<path d="M300.112 140.696L295.57 138.075C295.036 137.813 295.036 137.158 295.704 136.896L299.177 134.931C299.845 134.538 300.78 134.538 301.314 134.8L305.857 137.42C306.391 137.682 306.391 138.337 305.723 138.599L302.25 140.564C301.715 140.958 300.647 140.958 300.112 140.696Z" fill="#1F2855"/>
<path d="M308.395 145.412L303.853 142.792C303.318 142.53 303.318 141.875 303.986 141.613L307.46 139.648C308.128 139.255 309.063 139.255 309.597 139.517L314.139 142.137C314.674 142.399 314.674 143.054 314.006 143.316L310.532 145.281C309.864 145.674 308.929 145.674 308.395 145.412Z" fill="#1F2855"/>
<path d="M316.677 149.998L312.135 147.377C311.601 147.115 311.601 146.46 312.269 146.198L315.742 144.233C316.41 143.84 317.345 143.84 317.879 144.102L322.422 146.722C322.956 146.984 322.956 147.639 322.288 147.902L318.815 149.867C318.147 150.391 317.211 150.391 316.677 149.998Z" fill="#1F2855"/>
<path d="M332.709 159.169L321.621 152.88C320.819 152.356 320.953 151.57 321.888 151.046L324.292 149.735C325.228 149.211 326.697 149.211 327.499 149.604L338.587 155.893C339.388 156.417 339.255 157.203 338.32 157.727L335.915 159.038C334.98 159.562 333.51 159.562 332.709 159.169Z" fill="#1F2855"/>
<path d="M355.152 146.853L348.74 143.185C348.072 142.792 348.206 142.137 348.874 141.744L351.946 139.909C352.748 139.516 353.816 139.385 354.484 139.778L360.897 143.447C361.565 143.84 361.431 144.495 360.763 144.888L357.691 146.722C356.889 147.115 355.687 147.246 355.152 146.853Z" fill="#1F2855"/>
</g>
<path d="M260.292 179.196C244.358 195.799 178.187 212.706 122.916 172.859" stroke="black" stroke-width="0.803371" stroke-dasharray="4.02 4.02"/>
<path d="M126.129 73.7476C142.063 57.1446 208.234 40.2369 263.506 80.0841" stroke="black" stroke-width="0.803371" stroke-dasharray="4.02 4.02"/>
<defs>
<filter id="filter0_i_803_18837" x="22.5161" y="88.84" width="125.226" height="72.5292" filterUnits="userSpaceOnUse" color-interpolation-filters="sRGB">
<feFlood flood-opacity="0" result="BackgroundImageFix"/>
<feBlend mode="normal" in="SourceGraphic" in2="BackgroundImageFix" result="shape"/>
<feColorMatrix in="SourceAlpha" type="matrix" values="0 0 0 0 0 0 0 0 0 0 0 0 0 0 0 0 0 0 127 0" result="hardAlpha"/>
<feOffset dy="-1.88317"/>
<feGaussianBlur stdDeviation="1.88317"/>
<feComposite in2="hardAlpha" operator="arithmetic" k2="-1" k3="1"/>
<feColorMatrix type="matrix" values="0 0 0 0 1 0 0 0 0 1 0 0 0 0 1 0 0 0 0.25 0"/>
<feBlend mode="normal" in2="shape" result="effect1_innerShadow_803_18837"/>
</filter>
<filter id="filter1_i_803_18837" x="243.663" y="90.8087" width="125.768" height="72.8348" filterUnits="userSpaceOnUse" color-interpolation-filters="sRGB">
<feFlood flood-opacity="0" result="BackgroundImageFix"/>
<feBlend mode="normal" in="SourceGraphic" in2="BackgroundImageFix" result="shape"/>
<feColorMatrix in="SourceAlpha" type="matrix" values="0 0 0 0 0 0 0 0 0 0 0 0 0 0 0 0 0 0 127 0" result="hardAlpha"/>
<feOffset dy="-1.88317"/>
<feGaussianBlur stdDeviation="1.88317"/>
<feComposite in2="hardAlpha" operator="arithmetic" k2="-1" k3="1"/>
<feColorMatrix type="matrix" values="0 0 0 0 1 0 0 0 0 1 0 0 0 0 1 0 0 0 0.25 0"/>
<feBlend mode="normal" in2="shape" result="effect1_innerShadow_803_18837"/>
</filter>
</defs>
</svg>
